<?xml version="1.0" encoding="utf-8"?>
<!-- Generator: Adobe Illustrator 18.1.0, SVG Export Plug-In . SVG Version: 6.00 Build 0)  -->
<svg version="1.1" id="_x31_" xmlns="http://www.w3.org/2000/svg" xmlns:xlink="http://www.w3.org/1999/xlink" x="0px" y="0px"
	 viewBox="0 0 568.2 381.2" enable-background="new 0 0 568.2 381.2" xml:space="preserve">
<g>
	<path fill-rule="evenodd" clip-rule="evenodd" fill="#61442B" d="M8.6,381.2H550l0.1-43.4l-162.5,0c-2.2,6.6-15,6.1-18,1.7
		c-1-1.5-0.3-1.7-2.2-1.7l-358.7,0V381.2z"/>
	<path fill-rule="evenodd" clip-rule="evenodd" fill="#61442B" d="M196.4,235.5c0-1.6-0.2-2.6-0.3-4c-0.1-2.9-0.1-1.6-1.8-2.6
		c-0.4-6.4,0.7-9.5-1.5-16c-0.4-1.1-0.4-2.1-0.7-3c-0.9-2.6-0.8-3.2-3.6-3.4c-0.1-1.5,0.2-4.1-0.1-5.3c-0.1-0.2-0.5-1.4-0.7-1.8
		l-1.9-3.3c-1.9-2.7-1.3-3-5.4-8.4c-0.5-0.7-0.6-1-1-1.6c-1.1-1.7-2.4-2.9-3.6-4.6c-0.9-1.2-1.7-0.9-3-1.2c-2.9-0.5-0.1-2.6-2.3-4.5
		c-1.1-1-1.9-1.8-2.9-2.7c-3.1-2.9-9-7.8-12.7-9.6c-2.5-1.2-5.1-3.3-7.7-4.7l-16.8-6.9l-10.9-3c-2.1-0.1-3.1-0.6-4.9-0.9
		c-1.4-0.2-3.6-0.2-4.9-0.5c-4.9-1.2-11.1-0.9-16.2-0.9c-3.8,0-7.1,0.2-10.7,0.4c-4,0.2-8,1.1-11.9,1.9c-5.1,1-10.2,2.6-15.2,4.6
		c-1.3,0.5-2.4,1.2-3.7,1.9c-1.7,0.9-4.2,1.5-5.4,3c-0.8,1.1-0.4,0.8-0.9,1.9c-0.5,0.9-1.7,2-2.3,3.1c-3.6,0.4-3.3-0.9-6.4,1.1
		c-1.4,0.9-5.3,3.5-6.2,4.8c-0.4,0.5-0.8,1.7-1.3,2.4c-1.1,1.9-2.9,1.6-4.3,3.3c-1.7,2-1.9,2.1-2.9,4.5c-0.8,1.9-2,3.1-2.8,4.8
		c-1.2,2.5-1,2.4-2.7,4.6c-1.6,2.2-2.5,1.8-4.1,3.6c-1.4,1.6-2.4,1.6-3.6,3.6L6.7,201c-1.8,4.5-0.5,8.9-1.3,13.6
		c-0.2,1.1-0.8,1.4-1.4,2.4c-0.4,0.7-0.7,1.9-1,2.7c-0.7,1.8-2,3.1-2.5,5c-0.4,1.2-0.6,12.5-0.5,14.4c0.1,2.4,1.3,1,1.1,6.2
		c-0.1,2.7,0.9,3.7,1.1,6.2c0.2,2.2-0.2,4.9-0.3,7.1c-0.1,2.6,0.7,3.8,1.4,6.1c0.4,1.3,0.6,1.3,1,2.7c0.6,2.2,2.2,6.2,3.3,8.1
		c1.4,2.4,2.6,0.8,2.8,4.4c0.1,2.1,4.2,7.7,5.5,9.6c4.2,5.9,6.6,5.8,7.5,7.1l3.1,4.5c2.5,2.9,8.2,6.4,11.8,8.5
		c0.9,0.5,0.4,0.5,1.1,0.8c0.9,0.4,2.3,0.1,3.3,0.4c1.5,0.4,1.3,0.9,1.9,2c3.3,0.4,6.6,1.7,9.8,2.9c3,1.2,6,2.5,9.3,3.6
		c0.9,0.3,1.5,0.5,2.3,0.8c5.9,2.6,12.5,3.6,19.1,3.6l45.1,0.1c3.2,0,5.1-1.6,7.7-2.9c1.7-0.9,3.7-1.5,5.4-2.6
		c1-0.6,0.7-0.8,1.4-1.4c0.8-0.7,5.4-2.7,7-3.7c1.5-0.9,9-5.3,9.5-6.9c0.9-2.7-0.1-1.9,2.8-2.5c1.5-0.3,2.1-1.2,3.3-2.2l5.4-5.3
		c8-7.9,2.8-7.3,5.5-10.8c4.7-0.2,3.2-0.3,7.5-7.1c1-1.6,1.7-3.1,2.3-5.1c0.7-2.1,1.7-3,2.3-5.2l2.6-8.4c0.3-3.2,0-12.3,0.3-14.7
		c0.2-1.7,1.1-0.7,2.5-1.4C196.7,242.1,196.4,237.5,196.4,235.5z M147.9,239.8l-0.2,8c-0.1,1.6-0.5,1.6-0.5,3.4
		c-0.1,2.4-0.3,5.2-0.7,7.6c-0.1,1.1-0.6,2.3-0.7,3.5c-0.2,1.4-0.2,2.3-0.4,3.6c-0.7,3.9-1.2,4.8-1.6,6.6c-0.4,2-0.1,5.7-0.3,8.1
		c-0.7,0.5-1.5,1.1-2.1,1.9c-0.4,0.6-0.5,0.8-0.9,1.4c-2.2,3.1-1.9,3.8-3.4,6.7c-4.2,8-6.5,12-13.2,17.8c-3.5,3-7.7,4.8-11.8,6.5
		c-4.4,1.8-10.2,0.8-15.4,0.7c-1.4,0-2.8,0-4.2,0c-1.5,0-4.9-1.2-6.3-1.9c-9-4.6-13.5-8-20.1-16.8c-1.3-1.7-2.3-3.1-3.5-5
		c-0.6-0.9-1-1.8-1.5-2.7c-1.2-1.8-2.3-1.3-3.7-4.5l-2.1-4.2l-1.7-8.6c-0.1-1-0.1-0.5-0.6-1.5c-0.4-0.7-0.2-0.7-0.5-1.5
		c-1.4-4.1-4.3-3.2-4-12.3c0.1-3.1-0.2-4.9-0.3-7.9c-0.1-1.8-0.4-2.2-1.1-3.2c-2.7-3.9-3.7-8.4-0.6-12.6c0.9-1.2,0.9-0.9,0.6-3
		c-0.3-1.9,0.1-10.4,0.5-11.7c0.3-1.2,0.7-1.8,0.8-3.1c0.5-3.9,0.7-4.1,1.2-6.9c0.3-2.2,0.8-5.1,1.2-7.2l3-9.3
		c1.1-5.1,1.4-2.8,2.6-5.9c3.6-8.9,10.5-17.4,18.1-23c4.3-3.2,9.6-4.8,14.9-5.8c2.5-0.4,5.1-0.4,7.9-0.3c6.4,0.2,8.1,1.4,13,3.4
		c1.7,0.7,4,1.9,5.6,2.9c4.6,3.2,9.2,7.3,12.6,12c2.2,3,4.4,5.2,5.6,7.1c0.5,0.9,1.1,1.5,1.7,2.3c1.6,2.1,0.6,3.7,1.9,6.3
		c0.9,1.8,1.8,3.6,2.6,5.5c0.3,0.6,0.3,1.1,0.6,1.7c1.3,2.6,3.7,2.5,3.5,11c-0.1,5.8,4.8,5.7,4.7,11.5c0,3.2-0.2,5,0,7.9
		C149.3,233.7,148.8,235.8,147.9,239.8z"/>
	<path fill-rule="evenodd" clip-rule="evenodd" fill="#61442B" d="M229.6,249.3c0.8,0.4,1,0.6,1.5,1.4c0.9,1.2,1.6,3.1,1.6,4.8
		l-0.2,9.8c-0.4,2.8,2.7,4.7,3,9.7c0.1,1.4,0.2,5.3-0.1,6.5c-0.4,1.7-1.5,3-2.5,4c-1.4,1.4-0.3,2.8-1.5,5c-1.8,3.4-0.2,1.1-0.1,4.6
		c0.1,4.9-1.8,5-2.6,7.2c-3.3,9.1-7.5,6.9-10.9,8.6c-1.7,0.9-4.2,0.7-5.5,1.1c-0.6,0.1-1.2,0.6-2.3,1c-1.8,0.7-2.5,1.9-2.4,4.3
		c3.7,2.9,2.2,1.6,8.2,2.6c0.7,0.1,1.5,0.1,2.3,0.3c0.8,0.1,1.2,0.4,2.1,0.5c1.6,0.2,3.9,0,5.6,0c5.7,0,62.9,0.2,65.7-0.1
		c0.4-0.8,1.7-3.9,1.4-5.1c-0.3-1.1-2.7-2.9-3.6-3.2l-11.2-2.5c-7.9-2.7-7-13.2-7-20.1c0-4.1,0.3-24.7-0.1-27
		c-0.6-3.7,0.4-9.4-1-12.5c-0.5-1.2-0.4-1.7-0.4-3.1c0-1.4,0.1-2.2,0.2-3.2c0.2-1.8-4.9-8.1,0.1-14.6c0.3-0.4,0.7-0.7,0.8-0.9
		c0.7-1.1-0.6-3.5-0.2-5.7c0.8-4.2,0.5-15.1,0.5-19.8c0-4.7-0.8-7.9-0.8-12.7c0-2.6,0.8-3,0.8-5.9c0-4,0.3-18.2-0.2-20
		c-1-3.6-0.5-8.7-0.5-13c0-2.7,0.8-3.2,0.8-5.9c0-2.3,0.1-4.7,0-6.9c-0.9,0.1-7.9,2.7-9.2,3.3c-3,1.3-6.6,2.1-9.8,3.2
		c-2.2,0.8-8.7,1.2-11.4,1.2c-2.2,0-4.4,0.1-6.5,0c-7.8-0.1-16.9-5.5-22.7-1.8c-1.2,0.8-2,0.8-2.5,2.6c-2.2,8.8,10.4,6.1,16,9.6
		c1,0.7,2,2.5,2.5,3.6c1.2,2.5-0.8,0.8,2.2,4.3c2.9,3.4,2.4,5.6,2.4,10.8c0,2.7,0.5,13.4-0.5,15.4c-0.3,0.5-0.9,1.8-1.1,2.3
		c-1.4,2.1-1.2-0.2-1.2,5.2v38.6c0,2.4,0.3,3.9,0.3,6.2C229.6,244.9,229.4,247.2,229.6,249.3z"/>
	<path fill-rule="evenodd" clip-rule="evenodd" fill="#61442B" d="M549.8,247.3c0-5.1-1.4-7.4-2.3-11c-2.6-9.4-5.6-7.9-7-13.1
		c-0.7-2.7-0.3-2.8-3.1-3.5c-5.5-1.5-5.7-7-6.1-7.5c-1.6-1.9-8.6-0.7-10.5-7.3c-0.5-1.7,0.2-3.5-4.3-4.7c-1.4-0.4-2-0.7-3.1-1.4
		c-1.5-1.1-2.2-0.5-3.4-1.2c-1.3-0.7-2.1-1.9-5.7-3.2c-2.2-0.8-4.8-1.2-7.1-2c-6.7-2.3-24.3-2.9-30.9-2c-2.3,0.3-4.6,0.5-6.8,0.8
		l-6.3,1.7c-0.8,0.6-0.9,1.1-1.9,1.7c-0.9,0.4-1.9,0.7-2.7,1.3c-3.1,2-3.8-0.7-6,1.8c-4.7,5.5-8,1.3-11.7,3.7l-0.1,3.1
		c-0.5,0.3-2.4,1.2-3.1,1.3c-4.5,0.7-4-0.2-9.1,4.5c-1.8,1.7-3.1,2.6-4.4,4.6c-0.6,0.9-1,1.9-1.9,2.7c-2.6,2.2-0.4,1.7-2.6,2.1
		c-0.5,2.8-2,2.6-2.5,4c-0.5,1.9,0.8,1.4-2.6,3.9c-0.2,1.3,0.1,2-0.4,3c-1.2,2.6-0.4,5.4-0.6,9.9c-2.8,2.5-1.8,2.5-2.9,3.8
		c-0.5,0.6-0.9,0.7-1.2,1c-1.4,1.5,0.1,15.3-0.6,17.7c-0.4,1.4-1.6,1-1.7,2.9c-0.1,1.4,0.5,2.7,0.6,4.2c0.2,1.3,0.6,2.2,0.9,3.6
		c0.6,3.1,2.3,7.6,3.5,10.3c4.1,9,7,12.4,13.1,19c0.8,0.9,1.8,1.5,2.5,2.2c7.2,6.7,9.4,6.4,13.7,9.5c1.9,1.4,3.3,2.3,5.7,3.3
		l2.5,0.9c4.2,1.8,8.8,2,12.1,3.1c5.1,1.9,30.1-0.1,36.5-0.1c7.5,0,5.2-0.5,10.1-0.9c4.3-0.3,3.9-0.5,8.2-2.8
		c1.3-0.7,2.2-1.2,3.5-1.8c1.9-0.9,1.8-1.4,3.4-2.2c7.1-3.7,7.1-3.9,13.3-8.7c4.8-3.7,3.3-3.3,3.6-7.4c2.9-0.9,1.9-0.9,2.9-1.2
		c2.1-0.7,1.4,0.7,3.3-1.2c1.7-1.7,0.2-5.2,0.8-7.4l0.2-0.4c0.7-1.6,3.9,1.4,4-2.2c0-0.6,0-1.4,0-2c0-1.3-0.1-2.6,0.1-3.8
		c3.7-0.4,1.7,0.2,4.4-1.3c1.7-1,1.2-2,1.9-3.8c1.9-5.6,0.4-3.6,1.7-6.7C550.2,266.6,549.8,250,549.8,247.3z M508.9,275.9
		c-2.1,0.9-2.8-1.4-3.4,2.1l-1.1,4.3c-0.3,1-0.2,2.3-0.5,3.5c-0.9,3.2-1.5,5.4-2.8,8.5c-0.9,2-1.3,3.8-2.3,5.4
		c-2.5,3.9-3.6,5.4-6.6,8.6l-4.2,3.4c-6.7,4.5-17.1,4.1-23.7-0.6c-3.2-2.3-1.5-0.9-4.2-3.5c-1-1-1-0.9-1.9-2c-0.6-0.7-1-1.4-1.6-2.1
		c-1.4-1.6-4.5-1.1-7.2-4.4c-3.4-4.1-1.7-4.9-2-9.3c-1.1-0.9-1.7-1-2.8-2.2c-0.9-1-1.4-1.8-1.8-3.3c-1.7-6,1.6-5.1-0.9-8.1
		c-2.1-2.6-2.2-3.7-2.2-8c0-1.7,0.1-3.4,0-5.1c0-1.7,0-0.9-0.6-2c-0.7-1.4-0.3-15-0.3-17.5c0-2.9,0.4-3.5,2.8-4.5
		c0.3-3.1,0.6-5,1.4-7.6c1.6-5.1-0.2-6.4,2.7-10.6c3.1-4.5,4.2-11.4,13.6-17.4c0.7-0.5,0.6-0.6,1.2-1c3.1-2.3,8.8-3.1,12.7-2.8
		c10.4,0.6,17.5,9.2,22.8,17.2l6.4,15.8c0.2,1.4,0.3,0.9,0.6,1.8c0.3,0.9,0.2,2.8,1.4,5l3,0.1c0.4,2.4,0.1,7.4,0.1,10
		c0,1.7,0,3.4,0,5.1c0,2.4,0.6,1.8,1.9,2.9l0,15.7C509.6,274.3,509.8,275.5,508.9,275.9z"/>
	<path fill-rule="evenodd" clip-rule="evenodd" fill="#61442B" d="M312.3,321.3h28.8c3.1,0,4.7-0.6,7.6-0.7c7-0.3,22.9,1.4,29.1-1.8
		l4.1-1.8c0.9-0.3,3.5-1.4,4.1-1.9c0-1.6-1.5-2.5-2.9-2.9c-1.1-0.3-1.7-0.1-2.7-0.5c-4.9-2-14.9-0.7-15.2-12.7l-0.3-24.5
		c0-3.4,0.7-9.2-0.5-11.9c-1.4-3-0.9-7.6-0.9-11.5c0-1.7-0.2-4.6,0.3-5.9c0.9-2.5,1.3-1.2,1.3-4.8v-41.2c0-5.5-1.3-10.1-7.5-8.3
		c-1.1,0.3-3.7,2.8-4.8,3.6c-1.7,1.4-1.3,2.8-3.9,4.6c-3.8,2.7-2.3-0.5-3.9,4.2c-0.4,1-2.9,3.8-4,4.5c-2.4,1.3-4.2,1.2-7.4,1.2
		c-1.3,0-3-0.2-3.9,0.2l-3.6,1.7c-2,0.8-1.6,1-4.9,2.1c-1.2,0.4-1.8,0.7-3.2,1c-2.9,0.6-4.2,1.3-4.8,1.4c-2.2,0.5-5,0.9-7.5,3.2
		c-2.9,2.7-2,5.6,1,7.9c3.1,2.3,10,0.4,13.5,3.4c1.7,1.5,2.2,3.4,2.8,5.7c0.6,2.2,2,3.4,2.3,5.8l0.3,8.1c-0.1,8.6-2.4,6.8-2.5,10.1
		l0,8.2c0.1,1.5,0.5,1.6,0.5,3.7c0,1.3-0.1,3.1,0,4.2c0.2,2.5,1.4,0.6,1.4,7.3c0,1.5-0.5,3-0.4,3.9c0.1,1,6,7.3-0.6,13
		c-2.1,1.8-1.3,1.5-1.9,3.4c-0.3,1-0.1,0.3-0.4,0.8c-2.9,6.1-6.8,5.2-10.4,6.5c-3,1.1-8.4,1.1-8.8,3.9c-0.3,2.6,0.5,1.2-1.3,2.9
		c-0.8,0.8-1.1,1.8-0.5,2.8C302.3,322.4,308.7,321.3,312.3,321.3z"/>
	<path fill-rule="evenodd" clip-rule="evenodd" fill="#DB1983" d="M421.3,3.6c-17.1-9.9-32.4,2.5-42.4,15.4
		c-10.5,13.5-17.9,30.9-24.3,49.8c-1.9-0.1-10.6-2.8-13.1-3.4c-4.5-1.1-9-2-13.8-2.9c-0.1-1.2,5.8-13.1,5.8-29.7
		c0-5.9-1.5-10-7.3-10.5c-4.8-0.4-11.7,1.4-14.5,3.7l0.2,1.7c1.7-0.2,2.8-1.3,5-1.4c7.7-0.5,6.7,7.9,6.3,13.5
		c-0.7,10.4-2.9,13.6-5.1,21.8c-8-0.2-16-1.2-24.3-1.2c-31.8,0-75.8,4.7-94.3,32.6c-7.9,11.9-8.7,27.8,2.3,36.6
		c10.1,8.1,24.4,10.9,40.8,9c21.4-2.5,36.5-12.3,50.8-25.6c1.8-1.6,6.3-6.1,7.7-8c2.7-3.7,2-2.3,4.4-5.2c3.6-4.5,7.2-9.5,10.5-14.9
		c1.6-2.7,3.1-5.3,4.6-8.1c1-1.8,3.6-7.5,4.4-8.5c6.3,0.2,21,4.2,27.7,5.9l-4.1,16.9c-2.1,10.4-5.2,26.2,4.6,33
		c2.3,1.6,5.3,2.1,8.6,1c1-0.3,7.2-3.1,5.1-4.9c-0.9-0.8-2.2,1.4-5.6,2.5c-9.3,3-9.2-11.6-8.5-17.5c1.1-8.7,4.2-21.3,7.1-29
		c3.4,0.7,8.8,3.3,11.1,5.1c6.4,4.8,0.7,8.6,0.5,10.1c-0.1,1.4-0.1,0.3,0.2,0.8c1.2,1.1,9.3-5.6,3.5-12.9c-2.4-3-8.6-6.6-13.5-8
		c0.6-4.4,7.6-19.8,9.8-24.4c6.3-12.6,18.3-31.5,29-39.5c5.3-4,12.5-6.6,18.9-2c1.3,0.9,3.3,3.7,5.1,3.5
		C425.4,5.7,423.2,4.7,421.3,3.6z M307.9,82.2c-4.3,7.4-10.1,15.8-15.7,22.1c-4.9,5.6-10,10.5-16,15.3c-8,6.4-18.6,12.5-31.3,15
		c-36.1,7-55.6-15.7-37.2-39.2c6.4-8.1,15-14.2,26.9-19.1c2.7-1.1,19-6.5,22.2-6.8l15.3-2c4.2-0.5,28-1.9,32.8-1.6
		c3.4,0.2,7.1,0.4,10.5,0.7C315.5,68.8,309.2,79.8,307.9,82.2z"/>
	<path fill-rule="evenodd" clip-rule="evenodd" fill="#DB1983" d="M557.8,119c0.3-1.6,10.2-17.8,10.4-27.9c-3.5-2.2-1.7-2-4.3-5
		c-5.1-5.9-10.7,4.2-15.2,9.7c-2.9,3.7-5.5,6.9-8.4,10.5c-1.6,2-4.8,5.8-6.8,7.6c-0.6,0.5-2,2-2.8,1.3c-2.3-3,5.2-13.7,6.4-15.5
		c2.3-3.1,9-10.9,10.1-12.7c-0.6-1.2-3.1-3-4.5-3.9c-2.7-1.6-4.1-1.2-6.1,0.5c-2.6,2.2-5.6,6.4-7.6,9.3c-5.8,8.3-2.2,4.3-3.9,8.2
		c-0.5,1.1-0.8,1.9-1.2,3c-2.4,6-7.2,15.8-0.2,18c2.4,0.8,4.9,0.8,6.9-0.3c3.1-1.8,6.9-5.7,9-8.2c2.6-3.1,5.1-6,7.6-9.3
		c1.3-1.7,2.3-3.2,3.6-4.8c0.7-0.9,3-4.4,4-4.6c0.4,4.7-3.5,16-5.8,20.5c-1.3,2.6-2,3.2-4.7,4.3c-8.3,3.4-16.9,7-24.3,11.2
		c-7.7,4.3-14.9,9.4-20.9,14.7c-4,3.6-14.7,12.8-16.2,19.3c-1.1,5,4.3,9.2,6.5,11c3.7,2.9,7.4,4.6,13.7,3
		c11.8-2.9,22.9-14.5,30.2-23.1c5.7-6.7,10.3-13,15-20.5c1.2-1.9,2.3-3.7,3.4-5.6c1-1.8,2.5-4.2,3.1-5.9c10.2-0.1,6.4,9.9,8.3,13.4
		c2.4-0.2,2.8-5.2,2.8-7.6C566.1,123.5,563.1,120.1,557.8,119z M517.3,159.6c-2.3,2-4.4,3.9-7.1,5.9c-1.9,1.5-14.8,10.5-18.3,6.2
		c-3.7-4.4,4.6-14.7,7-17.6c1.9-2.4,7.4-8,9.8-10c6.4-5.3,11.1-9.1,19.3-13.5c3.3-1.7,14.6-7.2,18.4-7.7
		C545.8,129.8,523.4,154.2,517.3,159.6z"/>
	<path fill-rule="evenodd" clip-rule="evenodd" fill="#FFFFFF" d="M365.4,374.3l5.6,0l12.9-17.9l0.2,17.8l6.5,0l0.1-29.4l-5.6-0.1
		c-2.1,3.1-4.2,6.2-6.3,9.2l-4.9,7c-0.3,0.4-0.6,0.8-0.8,1.2c-0.2,0.2-0.2,0.3-0.4,0.5c-0.4,0.5-0.1,0.2-0.6,0.6l0-18.3l-6.6-0.1
		L365.4,374.3z"/>
	<path fill-rule="evenodd" clip-rule="evenodd" fill="#FFFFFF" d="M15.6,374.3c6.9,0.2,19.4,1.6,21.4-6.4c1.1-4.4-0.8-7.8-3.3-9.7
		c-3.5-2.6-6.9-1.7-11.4-2.3l0-5.3l11.4-0.1l0.1-5.5l-18,0L15.6,374.3z"/>
	<path fill-rule="evenodd" clip-rule="evenodd" fill="#FFFFFF" d="M461.3,374.3l7,0l2.7-6l14,0c0.3,0.8,2.1,5.8,3,6l6.5,0
		c-0.6-2.1-8.3-18.6-9.9-22.3c-0.6-1.4-2.6-6.6-3.6-7.1l-5.9,0c-0.9,0.2-3.2,5.9-3.6,7c-1.1,2.5-2.2,4.8-3.4,7.4
		C466.7,362.1,461.9,372.3,461.3,374.3z"/>
	<path fill-rule="evenodd" clip-rule="evenodd" fill="#FFFFFF" d="M53.5,374.3l7.1,0c0.3-1,2.2-5.8,3-6l13.5,0
		c0.3,0.8,2.1,5.8,3.1,6h6.4c-0.5-1.8-8.3-19-9.8-22.1c-0.9-2-2.3-5.8-3.4-7.3l-6.7,0L53.5,374.3z"/>
	<path fill-rule="evenodd" clip-rule="evenodd" fill="#FFFFFF" d="M105,374.3l6.7,0.1l0.1-12.8l11.2,0c0.2,3-0.4,10.6,0.2,12.8
		l6.5,0l0.1-29.4l-6.7-0.1l-0.1,11l-11.3,0.1l0-11l-6.8,0L105,374.3z"/>
	<path fill-rule="evenodd" clip-rule="evenodd" fill="#DB1983" d="M296,176.8c4.5,2.4,11.8-0.7,22.1,3.5c2.8,1.2,8.7,8.5,18.9-0.6
		c2-1.8,5.5-4.9,6.7-7.4c2.6-5.3-4-1.6-4.5-0.9c-0.2,0.4-0.1,4.9-5.9,6.5c-1.7,0.5-3.6,0.9-5.8,0.4c-3.1-0.8-4.8-2.1-6.7-5.1
		c-1.6-2.5-4.6-5-7-7.1c0,0-0.1-0.1-0.1-0.1l-0.3-0.3c-1.5-1.3-0.7-0.6-1.9-2.1c-3.8-4.6-1-9.2-4.3-7.3c-0.4,0.2-0.4,0.3-0.8,0.7
		l-0.8,0.9c-1.3,1.3-2.6,4.5-3.3,6.3c-0.6,1.5-1.1,3.1-1.4,4.8c-0.4,2-0.8,2.7-1.9,4.3c-0.6,0.8-0.8,1-1.5,1.6
		C295.4,176.7,296.1,175.4,296,176.8z"/>
	<path fill-rule="evenodd" clip-rule="evenodd" fill="#FFFFFF" d="M272.7,361.4l10.8,0c0.5,0.5,0.2-0.2,0.4,0.6l0.1,12l6.4,0V345
		l-6.4,0.1c0,2.1,0.3,9.3-0.2,11l-11.3-0.1c-0.5-1.7-0.2-8.7-0.2-11l-6.4,0l0,29.1h6.4l0-11.5C272.3,361,272.3,361.8,272.7,361.4z"
		/>
	<path fill-rule="evenodd" clip-rule="evenodd" fill="#FFFFFF" d="M151.2,374.3l6.5,0l0.1-12.5c1.6,1.1,7.6,9.5,9.7,11.7
		c0.8,0.8,0,0.4,1,0.8l7.4,0l-1.5-2.1c-0.6-0.8-0.9-1.2-1.6-2l-6.4-7.9c-0.9-1.1-2.7-3-3.3-4.1c0.6-1,2.1-2.6,2.9-3.4
		c1.2-1.2,8.5-9.1,8.7-9.8c-2.1,0-4.4-0.1-6.5,0c-2.3,0-1.6,0.5-3.9,2.8c-1.3,1.3-5.4,6.2-6.5,6.8l-0.1-9.5l-6.7-0.1
		C150.8,347.1,150.8,373.1,151.2,374.3z"/>
	<path fill-rule="evenodd" clip-rule="evenodd" fill="#FFFFFF" d="M311.5,374.2c3.2,0.2,10.4,0.3,13.5-0.2
		c8.5-1.3,10.8-10.6,4.7-15.6c-2.9-2.4-6.8-2.5-11.3-2.5c-0.7-1.8,0-8.4-0.3-11l-6.5-0.1L311.5,374.2z"/>
	<path fill-rule="evenodd" clip-rule="evenodd" fill="#FFFFFF" d="M194,374.3l18.8,0l0-5.3c-1.6-0.6-9.8-0.2-12.2-0.2l-0.1-7.6
		l12.2,0l0-5.4c-1.7-0.5-9.8-0.1-12.2-0.2l0-5.1l12.2,0l0.1-5.6l-18.8,0L194,374.3z"/>
	<path fill-rule="evenodd" clip-rule="evenodd" fill="#FFFFFF" d="M508.8,374.3l7,0l9.6-21c0.8,0.8,8.7,18.8,9.4,21h7.1
		c-0.5-1.9-12.4-27.8-13.2-29.4l-6.7,0L508.8,374.3z"/>
	<path fill-rule="evenodd" clip-rule="evenodd" fill="#DB1983" d="M519.6,84c-6.1-9-12.7-5-18.3-0.1c-4,3.5-9.6,11.2-12.6,16.2
		l-3.2,5.6c-0.3,0.4-0.1,0.2-0.5,0.5c0.1-3,0.6-5.9,0.8-9.1c0.1-3.6-0.5-6.5-0.5-9.7c7.4-5,11.9-20.9-2.8-17.8
		c-0.7,3.9,0.4,5.5-2,13.8c-2.6,9-8.5,18.1-14.2,25.3c-1.2,1.6-2.3,3.7-1.2,6.3c1.6-0.1,3.6-3.8,4.5-5.2L481.6,92
		c0.4-0.4,0-0.1,0.6-0.5c-0.5,12.8-15.9,39.8-21.7,49.3c-6.4,10.4-14.5,21.5-22.7,30.3c-1.5,1.6-2.6,3-4.2,4.5
		c-0.8,0.8-4.1,3.7-4.4,4.3c4,0.3,9.3,0.1,13.4,0.1c2.4,0,2.9-1.3,4.1-2.6c12.2-13.4,21.2-28.9,29.3-45.1c1.3-2.7,3.4-6.6,4.3-9.3
		c1.3,0.4,1.5,1.3,2.9,2c3.1,1.4,9.1-0.6,11.8-1.9c5.2-2.4,12.2-8.3,16-12.8c4.6-5.5,8.9-10.6,10.1-18.7
		C521.6,88.3,521.4,86.6,519.6,84z M482.5,117.5c1.3-4.7,10.7-16.5,13.6-20.1c2-2.5,14.3-18.5,18.1-14.1
		C520,90.1,492.1,119.5,482.5,117.5z"/>
	<path fill-rule="evenodd" clip-rule="evenodd" fill="#DB1983" d="M466.7,83.4c-10.1-13.6-24.1,6.3-29.3,14.7
		c-0.9,1.4-1.7,2.7-2.5,4.2c-0.7,1.2-1.6,3.2-2.4,4.3c0.6-6,1.4-11.1,0.5-17.1c-0.6-4,2-2.1,5.2-8.6c2.7-5.4,2.6-11.5-5.5-11.5
		c-3.7,0-2.8,0.5-2.8,1.8c0,11.6-4.8,20.8-9.8,28.8c-2.8,4.5-8.5,11.5-12.1,15.8c-6.6,7.8-8.6,2-1.9-9.8c1.1-2,2.1-3.9,3.3-5.7
		c0.8-1.3,3.2-4.2,3.1-5.9c-0.4-1.4-3.8-2.5-6.5-2.5c-4.6,0-2.7,1.6-7.3,8.2c-2.1,3-4.5,6-6.9,8.6c-1.7,1.8-13.7,15.2-16.7,13.9
		c-1.9-3.2,3.4-11.7,4.7-13.5c3-4.1,5.7-6.9,9-9.9c3.3-3,6.5-5.7,10.5-8.4c1.8-1.1,4-2.4,6.3-3c4.8-1.3,5.4,1.6,7.2,2.1
		c3-3.9-4.2-9.7-6.8-10.1c-12.7-2.3-37.6,20.2-37.2,37.2c0.1,4.6,3.9,11.1,9,9.5c3.4-1.1,11.6-10.4,14.2-13.8l3.1-4
		c0.2-0.3,0.3-0.4,0.5-0.7c0.5-0.6,0.3-0.4,0.8-0.7c-0.9,5.8-5.3,12.4,1.4,16.1c6,3.3,9.4-1,13.8-5.9c5.5-6,17-24.9,18.4-25.8
		c-1.7,18.6-24.1,55-36.2,70c-5.1,6.3-7.1,8.6-12.4,14.1c-0.9,0.9-4,3.5-4.4,4.4l13.8,0c1.9,0,2.5-1.3,3.5-2.3
		c10.9-10.9,23.3-32.7,30.2-46.7c1.1-2.1,2.7-6.3,3.8-8c2.7,2.6,4.3,3.2,9.4,2c8.1-1.8,17.4-9.9,22.1-15.7
		C464.1,103.7,472.8,91.6,466.7,83.4z M430,117.5c0.7-4.1,11-16.9,13.6-20.1c1.7-2.1,14.2-18.5,18.1-14.4
		C467.7,89.5,440.9,118.5,430,117.5z"/>
	<path fill-rule="evenodd" clip-rule="evenodd" fill="#E21762" d="M340.8,136.4c1.8-0.1,2.2-0.6,4.1-0.1c0.9,0.2,2.7,1.4,3.4,2
		c2.2,1.9,3.4,6,3.8,6.6c0.3,0.5,0.8,0.8,1.2,1.3c2.7,3.3,4.4,9.3,4.4,13.9c6.8-1.9,9.6-6.8,9.6-13.5c0-3.5,0.2-9.7-0.7-12
		c-5.8-0.2-4.2,1.9-10.9-0.9c-3-1.3-7.5-2.9-10.5-1.9C343.3,132.4,340.5,134.2,340.8,136.4z"/>
	<path fill-rule="evenodd" clip-rule="evenodd" fill="#DB1983" d="M340.8,136.4c1.8-0.1,2.2-0.6,4.1-0.1c0.9,0.2,2.7,1.4,3.4,2
		c2.2,1.9,3.4,6,3.8,6.6c0.3,0.5,0.8,0.8,1.2,1.3c2.7,3.3,4.4,9.3,4.4,13.9c6.8-1.9,9.6-6.8,9.6-13.5c0-3.5,0.2-9.7-0.7-12
		c-5.8-0.2-4.2,1.9-10.9-0.9c-3-1.3-7.5-2.9-10.5-1.9C343.3,132.4,340.5,134.2,340.8,136.4z"/>
	<path fill-rule="evenodd" clip-rule="evenodd" fill="#E21762" d="M346.3,170c-0.2,3.9-4.2,8.3-6.9,10.7c-5.7,5,1.6,4.8,4.5,4.2
		c12.4-2.6,17.2,0.9,20.9,1c-0.1-4.8-0.8-11.3-2.7-16.2C357.9,159.4,355.6,167.5,346.3,170z"/>
	<path fill-rule="evenodd" clip-rule="evenodd" fill="#DB1983" d="M346.3,170c-0.2,3.9-4.2,8.3-6.9,10.7c-5.7,5,1.6,4.8,4.5,4.2
		c12.4-2.6,17.2,0.9,20.9,1c-0.1-4.8-0.8-11.3-2.7-16.2C357.9,159.4,355.6,167.5,346.3,170z"/>
	<path fill-rule="evenodd" clip-rule="evenodd" fill="#FFFFFF" d="M423.7,347.4c0.5,1.2,2.6,2.8,3.6,3.7c0.2,0,6.6-4,8.4,0.3
		c0.8,1.8-0.2,3.3-1.2,4c-1.5,1.1-3.1,0.8-5.2,1l0,5c2.3,0.2,4.9-0.1,6.7,0.9c5.3,3-1.1,11.9-9.3,4.3l-5,3
		c1.6,4.2,11.5,7.6,18.3,3.8c2.6-1.5,4.7-4,4.4-8.2c-0.3-4.5-2.8-5.2-5.6-7.1c0,0,0.1-0.2,0.1-0.1c0,0,0.1-0.1,0.1-0.1l2.3-1.9
		c2-2.4,2-7.8-2.7-10.4C434,342.8,426.9,344.2,423.7,347.4z"/>
	<path fill-rule="evenodd" clip-rule="evenodd" fill="#DB1983" d="M320.2,148.6c0.2-1.6-1.3-3.2-0.3-6.8c1.2-4.3,5-7.7,9.7-7.8
		c2.6-0.1,4.7,0.9,7,1.4c0.9-1.7,0.4-4-1-5.2c-3.8-3.3-10.5-0.4-20.3-2.7l-5.6-1.5c-0.2,1.5,1.8,2.3,1.2,6.9
		c-1.1,7.9-4.2,9.6-5.1,14.1c-0.6,3.1,0.2,5.1,3.3,6c0.4-2.3,5.6-9.6,8.3-6.6C318.7,147.8,318,148.1,320.2,148.6z"/>
	<path fill-rule="evenodd" clip-rule="evenodd" fill="#FFFFFF" d="M228.8,350.5l6.1,0.1c0.2,4.3-0.5,21.4,0.2,23.7l6.5,0l0.1-23.7
		l6.2,0l0-5.6l-19.1-0.1L228.8,350.5z"/>
	<path fill-rule="evenodd" clip-rule="evenodd" fill="#1DA64A" d="M320.5,199.1c1.9-0.4,3.9-5,12.7-5.6c2.6-0.2,5-1.3,7.3-2
		c2.1-0.7,5.6-2.1,4.1-4.8c-1.9-1.7-5.4,1.3-9.1-3.1c-1.7,0.4-2.3,1.4-4.8,1.8c-9.9,1.8-10.8-4.5-15.6-4.1c-4.1,0.4,0.1,4.3,1.8,8.1
		C318.3,192.5,319.2,196,320.5,199.1z"/>
	<path fill-rule="evenodd" clip-rule="evenodd" fill="#1DA64A" d="M295.8,137.1c0.6,0.8,1.4,1,2.1,2.1c3,5.3-5,19.5,2.9,23.9
		c1.1-1.3,0.4-3.8,5.3-9.1c-2.4-3.2-3.4-5.8-1.1-10.4c1.2-2.4,3.8-6.7,3.9-9.8C306.6,133.9,297.5,136,295.8,137.1z"/>
	<path fill-rule="evenodd" clip-rule="evenodd" fill="#FFFFFF" d="M337.9,374.3l6.4,0l0.1-29.3l-6.5-0.1
		C337.5,347.1,337.6,373,337.9,374.3z"/>
	<path fill-rule="evenodd" clip-rule="evenodd" fill="#1DA64A" d="M338.8,134.7c1.5-1.8,1.9-3.2,4.6-4.1c2.6-0.9,6.5,0.8,7.6-0.3
		c1.9-2.6-5.9-5.9-7-13.5c-2.6,0.8-4,2.6-7.4,3c-3.3,0.4-5.7,0.5-6.7,3.5c-2.1,6,4.9,1.8,7.8,7.2C338.4,132,338.3,133.8,338.8,134.7
		z"/>
	<path fill-rule="evenodd" clip-rule="evenodd" fill="#DB1983" d="M320.2,148.6c-1,1.2-1.7,0.9-1.9,2.8c-0.1,1.3,0.6,2,1.6,2.7
		c0,0,0.1,0.1,0.1,0.1l0.3,0.2c0,0,0.1,0.1,0.1,0.1c3.4,2.3,1.3,0.8,4,3.1c0.6,0.5,0,0.4,1.1,0.6c-0.2-1.6-3.1-6.7-0.5-10
		c0.4-0.6,0.5-0.5,0.9-1.1c1.6-2.2,3.9-3.2,6.8-3.2c1,0,1.4,0,2.7,0.2l2.7,0.4c0.1,0,0.2,0,0.2,0c0.5,0,0.8-0.1,0.6-0.6
		c0,0,0-0.1,0-0.2l-1.6-2.3c-2-2.2-6.8-6.2-9.8-5.7c-1.2,0.2-2.2,1.2-2.8,2.2c-0.4,0.6-0.6,1.2-0.8,1.8
		C323,142.2,324.1,145.9,320.2,148.6z"/>
	<path fill-rule="evenodd" clip-rule="evenodd" fill="#E21762" d="M345.5,160c-3.8,2.1-9,6.6-14.3,6.5c-8.4-0.2-9.7-7.7-10.9-10.3
		c-1.1,0.4-0.4-0.5-0.9,1c-0.5,1.4-1.6,8.4,0.2,10.3c1.8,2,3.5-0.6,8.2,2.2l2.4,1.3c2.4,1.2,8.5-0.1,10.5-1.6
		C342.2,168.2,345.6,162.6,345.5,160z"/>
	<path fill-rule="evenodd" clip-rule="evenodd" fill="#DB1983" d="M345.5,160c-3.8,2.1-9,6.6-14.3,6.5c-8.4-0.2-9.7-7.7-10.9-10.3
		c-1.1,0.4-0.4-0.5-0.9,1c-0.5,1.4-1.6,8.4,0.2,10.3c1.8,2,3.5-0.6,8.2,2.2l2.4,1.3c2.4,1.2,8.5-0.1,10.5-1.6
		C342.2,168.2,345.6,162.6,345.5,160z"/>
	<path fill-rule="evenodd" clip-rule="evenodd" fill="#DB1983" d="M337.2,138.8c0.2,1.1,0.7,1.2,1.3,2c0.3,0.4,0.5,0.6,0.7,1
		l1.8,3.8c1.5,4.1,1.2,10.3,1.2,14.6c1.5-0.6,3.7-5.1,4.5-6.7c3.1-6,4.3-16.2-5.6-15.7C340.4,137.8,338,138.2,337.2,138.8z"/>
	<path fill-rule="evenodd" clip-rule="evenodd" fill="#1DA64A" d="M356.1,162.4l0.7,0.3c4.5,1.4,7,3.1,7.6,9.6
		c0.8-0.5,0.5-0.3,1.1-1c2.5-2.6,2.8-1,3.7,0c3-5.9,2.8-4,3.9-5.8c-2.1-1.3-1.8-3.4-1.9-6.2c-0.1-2.6-2.2-4.3-4.7-3
		c-1,0.5-1.3,1.1-2.1,1.9C362.7,159.9,358.4,161.3,356.1,162.4z"/>
	<path fill-rule="evenodd" clip-rule="evenodd" fill="#DB1983" d="M310.1,155.7c0,2,0.2,3.5,0.9,5.3c1,2.5,2.2,3.5,3.9,4.8
		c0.7,0.6,0.5,0.5,1.4,0.8c0.5-1.5-0.7-3.7,1.9-10.1c-1.9-1.1-2.9-1.7-2.3-4.7c0.2-1.1,1.9-4.6,0.1-4.8
		C314.6,146.8,310.1,151.6,310.1,155.7z"/>
	<path fill-rule="evenodd" clip-rule="evenodd" fill="#DB1983" d="M346.2,167.2c3.1-1.1,5.7-1.6,8-5.4c3.4-5.6-1.6-15-3.8-16.1
		c-0.5,0.8,0.8,3.9,0.8,5.6c0,1.9-0.4,4.5-0.8,6.2c-0.6,2.3-1.7,5.3-3,7.4C346.8,165.6,346.2,166.2,346.2,167.2z"/>
	<path fill-rule="evenodd" clip-rule="evenodd" fill="#DB1983" d="M335.9,173c-1.2,0.3-5.1-0.5-6.6-1.3c-0.1,0-0.1-0.1-0.2-0.1
		c0,0-0.1-0.1-0.2-0.1c-5.1-3.2-9.7-2.7-7.6,1.1C325.9,181.1,335.9,175,335.9,173z"/>
	<path fill-rule="evenodd" clip-rule="evenodd" fill="#DB1983" d="M327.8,156.5c0,5.2,6.3,5.6,8.1,1.9c1.3-2.6-0.5-5.4-3-6
		C330.8,152,327.8,153.9,327.8,156.5z"/>
	<path fill-rule="evenodd" clip-rule="evenodd" fill="#DB1983" d="M325.9,152.6c0,1.1,0,1.6,0.5,2.5c0.4-0.3,2.2-5.5,6.8-4.4
		c1.5,0.3,2.7,1.3,3.4,2.5c1.2,1.9,1,2.3,0.6,4.6c3.2,0,2.9-6.8-0.3-8.8c-2.3-1.4-4.7-1.8-7.3-0.9c-1.3,0.4-1.6,0.7-2.3,1.7
		C326.6,150.5,325.9,151.4,325.9,152.6z"/>
	<path fill-rule="evenodd" clip-rule="evenodd" fill="#BDB0A4" d="M272.7,361.4c-0.3,0.4-0.3-0.5-0.5,1.1l0,11.5h-6.4l0-29.1l6.4,0
		c0,2.3-0.3,9.3,0.2,11l11.3,0.1c0.5-1.6,0.2-8.8,0.2-11l6.4-0.1v29.1l-6.4,0l-0.1-12c-0.2-0.8,0.1-0.1-0.4-0.6l0.2,12.8l6.9,0.1
		l0.1-29.5c-1.5-0.4-5.6-0.4-6.9,0l-0.1,10.8l-11,0l-0.1-10.9c-1.5-0.5-5.4-0.4-7-0.1l-0.1,29.5l7,0.1L272.7,361.4z"/>
	<g>
		<path fill-rule="evenodd" clip-rule="evenodd" fill="#61442B" d="M22.3,361.2l0,7.5C35.1,370.3,32.3,359.4,22.3,361.2z"/>
		<path fill-rule="evenodd" clip-rule="evenodd" fill="#61442B" d="M319.1,361.1h-0.9v6.6l0.1,1.1c3.5,0,8,0.4,8.2-3.3
			C326.6,361.6,322.6,361.1,319.1,361.1z"/>
		<path fill-rule="evenodd" clip-rule="evenodd" fill="#61442B" d="M478,353.1c-1.2,2.8-3.6,6.8-4.4,9.6l1.2,0l6.5,0l1.1,0
			L478,353.1z"/>
		<polygon fill-rule="evenodd" clip-rule="evenodd" fill="#61442B" points="65.8,362.6 74.6,362.7 70.1,353.3 		"/>
	</g>
</g>
</svg>
